<?xml version="1.0" encoding="UTF-8" standalone="no"?>
<!-- GOTRS Dark Mode Logo -->
<svg
   width="187.65862mm"
   height="61.217819mm"
   viewBox="0 0 187.65862 61.217819"
   version="1.1"
   id="svg1"
   xml:space="preserve"
   xmlns="http://www.w3.org/2000/svg"
   xmlns:svg="http://www.w3.org/2000/svg"><g
     id="layer1"
     transform="translate(-9.4522848,-11.70629)"><path
       style="fill:#3b82f6;stroke-width:0.72238"
       d="m 35.283725,72.643519 c 10.352389,-3.89811 15.203454,-6.35511 20.093833,-10.17726 7.188735,-5.61846 10.678976,-11.06231 11.403663,-17.78668 l 0.200204,-1.8577 -0.833736,-0.87071 c -1.177206,-1.22942 -7.411023,-6.11944 -9.570885,-7.50774 -0.995451,-0.63985 -2.590731,-1.59237 -3.545064,-2.11672 l -1.735154,-0.95335 -1.725427,0.53612 c -0.948985,0.29486 -2.272357,0.65089 -2.940828,0.79118 -1.444592,0.30316 -5.330117,0.33826 -6.555663,0.0592 l -0.851723,-0.19393 2.266438,-0.47962 c 2.939931,-0.62215 4.970398,-1.32805 7.091589,-2.46543 1.343811,-0.72056 4.085426,-2.41157 4.80187,-2.96177 0.386039,-0.29646 -9.427087,1.68254 -10.692962,2.15643 -0.501471,0.18773 -1.242021,0.51844 -1.645667,0.73491 -0.817365,0.43833 -0.815054,0.43365 0.665093,-1.34781 0.564848,-0.67984 1.026997,-1.30892 1.026997,-1.39796 0,-0.089 -0.401468,-0.35291 -0.892153,-0.5864 l -0.892152,-0.4245 -1.038043,0.91512 c -1.160527,1.02308 -3.107599,2.38396 -3.24847,2.27046 -0.05044,-0.0407 0.06838,-0.47724 0.26405,-0.97023 l 0.355758,-0.89633 -1.112856,-0.78436 c -1.241709,-0.87518 -2.098714,-1.92764 -1.389325,-1.70619 0.216782,0.0677 0.918515,0.23358 1.559408,0.36868 0.640893,0.13511 1.319598,0.28511 1.508233,0.33335 0.24321,0.0622 0.508144,-0.15681 0.910815,-0.75291 0.312313,-0.46233 0.567842,-0.87328 0.567842,-0.91321 0,-0.0399 -0.574913,-0.37238 -1.277584,-0.73876 -0.702672,-0.36639 -1.277585,-0.71789 -1.277585,-0.78111 0,-0.0632 0.828258,-0.008 1.840572,0.12251 1.012315,0.13062 1.87689,0.20821 1.921278,0.17245 0.04438,-0.0358 0.399355,-0.42613 0.788816,-0.86749 l 0.70811,-0.80247 -0.849746,-0.68465 c -0.46736,-0.37655 -0.809518,-0.71706 -0.760351,-0.75667 0.04916,-0.0396 0.680964,0.048 1.403994,0.19478 l 1.314599,0.26681 1.28791,-0.90255 c 0.708351,-0.4964 1.287911,-0.92808 1.287911,-0.95927 0,-0.0312 -0.343392,-0.48923 -0.763093,-1.01786 -0.419701,-0.52863 -0.731113,-0.98564 -0.692025,-1.01558 0.03909,-0.0299 0.850942,0.25217 1.804121,0.6269 l 1.733052,0.68133 1.21501,-0.55248 c 1.278283,-0.58126 1.341313,-0.71555 0.83303,-1.7749 -0.1326,-0.27636 -0.09175,-0.3081 0.251253,-0.19523 2.352723,0.77423 2.732552,0.83446 3.953533,0.62695 1.031712,-0.17535 1.186331,-0.25159 1.093052,-0.53898 -0.13695,-0.42195 0.519094,-0.44039 1.750934,-0.0492 0.468447,0.14875 1.90573,0.33357 3.193962,0.41071 1.288231,0.0771 2.816861,0.258 3.396956,0.40195 0.580096,0.14394 1.091458,0.23211 1.136362,0.19593 0.384251,-0.30959 -4.332891,-1.70595 -7.052138,-2.08756 -2.43024,-0.34105 -6.215209,-0.23554 -9.021249,0.25147 -2.106032,0.36552 -5.18783,1.44748 -7.222799,2.53577 -3.363133,1.79861 -6.923568,5.26611 -9.667329,9.41499 -1.693639,2.56097 -1.771907,2.62524 -1.619357,1.32959 0.06944,-0.58974 0.08272,-1.07226 0.02953,-1.07226 -0.334315,0 -6.284512,3.33742 -6.367721,3.57161 -0.05638,0.15868 -0.167822,1.0396 -0.247646,1.95758 l -0.145133,1.66908 -1.154273,0.79453 c -0.63485,0.43699 -2.096747,1.65457 -3.24866,2.70572 -1.151913,1.05116 -3.254317,2.83276 -4.67201,3.95912 -1.417692,1.12635 -2.551146,2.06925 -2.518785,2.09532 0.100097,0.0807 1.982267,-0.41274 2.674062,-0.70098 l 0.655895,-0.27327 -0.115775,0.56001 c -0.06368,0.30801 -0.154422,0.71838 -0.201657,0.91196 -0.05616,0.23014 -0.520521,0.51931 -1.341833,0.8356 l -1.255951,0.48365 -0.139033,1.20531 c -0.07647,0.66291 -0.104213,1.23336 -0.06165,1.26765 0.04256,0.0343 0.696707,0.0698 1.453662,0.079 1.33219,0.0161 1.420717,-0.0104 2.763178,-0.82915 1.533928,-0.93545 3.776641,-2.01649 3.928898,-1.89381 0.131875,0.10625 -4.539452,3.73242 -4.808206,3.73242 -0.521735,0 -0.142647,0.33809 0.485558,0.43304 0.800792,0.12104 2.94705,-0.45316 3.570058,-0.95513 0.351769,-0.28342 0.482245,-0.29072 1.464808,-0.0819 3.147515,0.66898 4.857274,1.92554 5.319497,3.90947 l 0.169189,0.72618 0.263881,-0.51468 c 0.533321,-1.04021 0.888566,-2.87511 0.740942,-3.82709 -0.120709,-0.77841 -0.283289,-1.04731 -0.965591,-1.59705 -0.974736,-0.78536 -1.394893,-0.64635 3.857549,-1.27626 4.364822,-0.52346 5.885606,-0.81012 7.247323,-1.36609 2.17052,-0.88619 3.002689,-1.80602 4.117433,-4.55119 l 0.699442,-1.72245 0.63697,2.56558 0.63697,2.56559 -0.68096,0.74436 c -1.387721,1.51693 -3.589844,2.79503 -5.769606,3.34864 l -1.108789,0.28161 0.81229,1.30203 c 1.799571,2.88455 2.73391,5.74728 2.965718,9.08668 l 0.138437,1.9943 1.032206,-1.26113 c 1.460532,-1.78446 2.750445,-3.79377 3.650911,-5.68707 1.011326,-2.12639 2.317793,-6.26524 2.761896,-8.7496 0.193976,-1.08512 0.428543,-2.12735 0.52126,-2.31607 0.309223,-0.62939 0.514507,5.33631 0.262733,7.63517 -0.782691,7.14647 -3.395016,12.04307 -9.008852,16.88639 -1.42119,1.22613 -5.158377,3.87363 -5.966189,4.22658 -0.26343,0.1151 -0.166309,-0.19957 0.388499,-1.25873 2.706662,-5.16713 2.979085,-10.86903 0.819154,-17.14511 -0.795602,-2.31178 -1.648153,-4.18392 -1.885352,-4.1401 -0.08341,0.0154 -0.628615,0.1265 -1.211572,0.24688 l -1.059922,0.21888 -0.0031,1.5545 c -0.0068,3.36476 -1.29196,5.62525 -4.058744,7.13909 -1.29312,0.70753 -1.577704,0.81732 -3.733315,1.44019 l -1.300817,0.37589 0.586041,-0.95536 c 0.822438,-1.34074 1.048826,-2.0898 1.196128,-3.95768 0.259331,-3.28848 -0.983869,-4.0185 -5.31349,-3.12013 l -1.661408,0.34473 -1.958415,-0.64567 c -3.036649,-1.00115 -3.619912,-1.26151 -3.673935,-1.63997 -0.02694,-0.18871 -0.106876,-0.96073 -0.177638,-1.7156 -0.07076,-0.75487 -0.2397542,-1.96273 -0.3755372,-2.68415 l -0.246877,-1.31166 1.3642512,-1.25297 c 0.750338,-0.68913 1.847822,-1.68153 2.438854,-2.20533 2.245782,-1.99032 3.925976,-3.58326 5.520939,-5.23423 l 1.650499,-1.70846 -0.134498,-0.95073 c -0.07397,-0.52291 -0.191727,-1.30982 -0.261673,-1.74869 -0.113303,-0.71091 -0.07223,-0.8253 0.376559,-1.04871 0.277053,-0.13792 1.632795,-0.8086 3.012759,-1.4904 l 2.509025,-1.23963 0.864082,-1.38467 c 1.639577,-2.62739 3.67887,-4.81531 6.600751,-7.08183 2.262367,-1.75492 3.91209,-2.68451 6.691394,-3.77045 3.898296,-1.52315 7.45349,-2.0688 12.551239,-1.92634 4.390733,0.12269 7.32628,0.67687 11.095638,2.09463 2.77747,1.04468 4.384486,1.97079 6.685254,3.85265 2.776403,2.27089 4.509336,4.88057 5.025005,7.56732 l 0.14679,0.76481 -1.141819,-1.37249 c -2.666065,-3.20465 -6.96429,-5.785 -11.163157,-6.70157 -1.99832,-0.43621 -6.262746,-0.52186 -8.423053,-0.16917 -3.996303,0.65243 -7.043051,2.00499 -9.851498,4.37343 -0.898963,0.75813 -1.634478,1.44776 -1.634478,1.53252 0,0.0848 0.853148,0.54494 1.895885,1.02262 l 1.895885,0.86852 3.480617,-0.57039 c 1.91434,-0.3137 4.140037,-0.62587 4.945993,-0.6937 l 1.465375,-0.12332 -0.147001,0.48787 c -0.08085,0.26833 -0.633252,1.40548 -1.227558,2.527 -1.02136,1.92741 -1.05859,2.04897 -0.679582,2.21881 1.130084,0.50638 5.820664,3.14349 7.265833,4.08493 3.158731,2.05773 6.255067,4.33265 7.816693,5.74303 1.544769,1.39516 1.573467,1.43815 1.725969,2.58551 0.08529,0.64172 0.09329,2.15044 0.01777,3.35271 -0.391518,6.23276 -2.792151,10.90069 -8.080585,15.71237 -7.025041,6.39173 -17.066683,10.61883 -28.360195,11.93842 l -0.851724,0.0995 z m 100.450105,-18.38278 -0.58556,-0.0543 -0.0252,-10.41092 c -0.0138,-5.726 -0.0138,-10.46881 0,-10.53959 0.0138,-0.0708 -1.50789,-0.12866 -3.38169,-0.12866 h -3.40689 v -2.57341 -2.57341 h 10.11422 10.11421 v 2.57341 2.57341 h -3.30042 -3.30044 v 10.54169 10.5417 l -2.82132,0.0522 c -1.55174,0.0287 -3.08484,0.0277 -3.4069,-0.002 z m 19.90902,0.007 -3.24719,-0.0473 v -13.11993 -13.11992 h 7.7273 7.7273 l 2.15601,1.58694 2.15602,1.58693 0.0712,2.91654 c 0.0392,1.60409 0.0541,3.79747 0.0331,4.87419 l -0.0382,1.95767 -2.05772,1.66416 -2.05771,1.66417 0.53371,0.92453 c 3.49153,6.04823 5.19482,9.065 5.14229,9.10772 -0.035,0.0285 -1.59366,0.0288 -3.46373,6.5e-4 l -3.40013,-0.0509 -0.78793,-1.40738 c -0.43336,-0.77405 -1.65985,-2.93211 -2.72552,-4.79569 l -1.93758,-3.38832 h -1.10955 c -0.86021,0 -1.14173,0.0675 -1.25277,0.30023 -0.0788,0.16512 -0.12248,2.32801 -0.0971,4.80642 0.0254,2.47841 0.008,4.52427 -0.0393,4.54636 -0.0469,0.0221 -1.54657,0.0189 -3.33253,-0.007 z m 9.4617,-15.16567 c 0.46966,-0.35549 0.49282,-0.48598 0.49282,-2.7768 0,-3.24271 0.0496,-3.19791 -3.54298,-3.19791 -3.28815,0 -3.14193,-0.15676 -2.99284,3.20866 0.14287,3.22513 0.0551,3.13908 3.20144,3.13908 2.11846,0 2.39706,-0.0366 2.84156,-0.37303 z m 20.19882,15.13691 -4.03579,-0.0954 -2.07609,-1.54405 -2.07609,-1.54405 -0.01,-2.78786 -0.01,-2.78785 h 3.40689 3.4069 v 1.47365 c 0,2.02512 0.14151,2.11572 3.31654,2.12341 2.20616,0.005 2.38875,-0.0204 2.82942,-0.39829 0.43017,-0.36894 0.46574,-0.54952 0.40974,-2.08057 l -0.0613,-1.67656 -6.65409,-2.58058 -6.65409,-2.58057 v -4.24489 -4.24488 l 2.16423,-1.64495 2.16424,-1.64496 h 5.73162 5.73162 l 2.11189,1.57395 2.11189,1.57396 v 2.37194 2.37194 h -3.30042 -3.30043 v -0.99946 c 0,-0.8229 -0.0871,-1.06536 -0.49281,-1.37249 -0.44562,-0.33729 -0.72196,-0.37302 -2.88474,-0.37302 -2.32212,0 -2.40738,0.0134 -2.92204,0.46088 -0.48686,0.42326 -0.52513,0.57318 -0.46893,1.83665 l 0.0612,1.37577 3.83985,1.46589 c 2.11192,0.80624 5.10626,1.94259 6.65409,2.52522 l 2.81422,1.05932 v 4.62946 4.62946 l -2.1666,1.62278 -2.16662,1.62277 -1.71937,-0.0106 c -0.94566,-0.006 -3.53548,-0.0535 -5.75516,-0.10601 z m -103.870361,-1.60746 -2.079541,-1.58087 -1.66e-4,-9.94631 -1.68e-4,-9.94631 2.114017,-1.58875 2.114017,-1.58874 h 5.796416 5.796418 l 2.207407,1.64695 2.20742,1.64696 v 2.29894 2.29894 h -3.27064 -3.27064 l -0.12467,-0.97324 c -0.20082,-1.56773 -0.56692,-1.75356 -3.515744,-1.78461 -2.239806,-0.0236 -2.446245,0.003 -2.927799,0.36678 l -0.518083,0.39215 v 7.15251 c 0,8.82004 -0.331269,8.05658 3.495811,8.05658 3.407162,0 3.317975,0.073 3.317975,-2.71559 v -2.08811 H 91.0659 89.356762 l 0.05893,-2.53052 0.05893,-2.53052 5.057107,-0.0506 5.05711,-0.0506 -0.008,5.96941 -0.008,5.96939 -2.15198,1.58694 -2.151972,1.58694 -5.87816,-0.008 -5.87816,-0.008 z m 25.235771,-0.0514 -2.18255,-1.64169 v -9.80947 -9.80946 l 2.07989,-1.66949 2.07988,-1.6695 h 5.82152 5.82152 l 2.21281,1.65099 2.21281,1.65099 v 9.77075 9.77075 l -2.18254,1.69543 -2.18254,1.69542 -5.74913,0.003 -5.74913,0.003 z m 10.84269,-3.78158 c 0.36573,-0.26667 0.3894,-0.73175 0.3894,-7.64984 v -7.36591 l -0.47909,-0.32202 c -0.40404,-0.27157 -0.84952,-0.32292 -2.84347,-0.32773 -2.25423,-0.005 -2.39214,0.015 -2.96015,0.43915 l -0.59576,0.44486 0.15274,7.1467 c 0.18554,8.6805 -0.15104,7.91873 3.49889,7.91873 1.97912,0 2.52264,-0.0544 2.83744,-0.28394 z M 23.998393,35.738799 c 0,-0.29875 1.45749,-2.98617 2.207195,-4.06978 l 0.712172,-1.02937 h 3.100997 c 1.705548,0 3.166206,0.0527 3.245907,0.11709 0.180853,0.14613 -0.776682,1.5705 -1.591022,2.36671 -0.603515,0.59007 -0.633767,0.5979 -2.756078,0.71278 l -2.145864,0.11616 -1.386653,0.98088 c -0.76266,0.53949 -1.386654,0.90197 -1.386654,0.80553 z m 4.782236,-2.61399 c 1.103849,-0.19509 1.504603,-0.38258 1.814314,-0.84885 0.164015,-0.24692 0.05841,-0.26633 -0.916582,-0.16846 -1.378834,0.13841 -1.616651,0.23122 -2.257933,0.88126 -0.460485,0.46677 -0.472157,0.5132 -0.106465,0.42346 0.225895,-0.0554 0.885896,-0.18477 1.466666,-0.28741 z"
       id="path1" /></g></svg>